<svg preserveAspectRatio="none" width="100%" height="100%" overflow="visible" style="display: block;" viewBox="0 0 35.4654 35.4654" fill="none" xmlns="http://www.w3.org/2000/svg">
<g id="Camada 1">
<g id="Group">
<path id="Vector" d="M31.6002 16.582C31.5625 16.632 31.5018 16.6726 31.4136 16.6467C31.4815 16.7843 31.3992 17.1644 31.3992 17.1639C31.4083 17.2585 31.4425 17.3237 31.4251 17.4194C31.3957 17.5801 31.466 17.7434 31.4486 17.8984C31.4072 18.2721 31.5114 18.2411 31.4494 18.4846C31.4323 18.5525 31.4871 18.6364 31.4577 18.7145C31.3561 18.9842 31.5427 19.1023 31.3842 19.3391C31.3235 19.43 31.3388 19.5172 31.3396 19.6142C31.3404 19.6933 31.3257 19.7617 31.3428 19.8438C31.3585 19.9181 31.2947 19.9962 31.2995 20.0758C31.3072 20.2046 31.2626 20.3925 31.2313 20.5489L31.1902 20.7531C31.1746 20.8298 31.1704 20.9044 31.0921 20.9512C31.1049 20.9801 31.1287 20.9854 31.1693 21.0092C30.9501 21.2244 31.0867 21.5638 30.9279 21.6593C30.8924 21.6806 30.9458 21.7795 30.9138 21.7838C30.8416 21.7929 30.8641 22.127 30.766 22.3013C30.6852 22.4446 30.6499 22.5924 30.5842 22.7479L30.4906 22.9682C30.4773 23 30.3027 23.4656 30.2977 23.4859C30.2848 23.5391 30.3808 23.6009 30.3452 23.6789C30.3265 23.7196 30.2752 23.6346 30.2549 23.646C30.141 23.7107 30.1143 23.8668 30.0705 23.9818C30.0133 24.1315 29.8938 24.2483 29.8491 24.3947C29.8272 24.4664 29.7877 24.4936 29.7553 24.546L29.5303 24.9098C29.4632 25.0178 29.4388 25.1394 29.3381 25.2319C29.2148 25.3447 29.1873 25.5417 29.0772 25.6614C28.9962 25.7497 28.5739 26.3524 28.6351 26.296L28.4394 26.4938C28.3707 26.5636 28.3162 26.6184 28.2566 26.6844C28.2109 26.7346 28.2264 26.8341 28.1331 26.8581C28.008 26.8905 27.9671 27.0166 27.8987 27.1016L27.765 27.2679C27.7111 27.3352 27.64 27.3898 27.5793 27.4539C27.4387 27.6028 27.3037 27.7445 27.1717 27.9035C27.1137 27.973 26.96 27.9543 26.9033 28.0361C26.8456 28.1189 26.7972 28.1839 26.7055 28.2368C26.5769 28.3114 26.482 28.4488 26.3543 28.5127C26.2749 28.5522 26.2532 28.6271 26.1832 28.6787L25.6924 29.0392C25.5813 29.1208 25.4703 29.2159 25.3324 29.2095C25.3038 29.2547 25.2252 29.2806 25.1931 29.3092C25.1023 29.3899 25.0314 29.4506 24.9165 29.4907C24.7885 29.5353 24.7051 29.6586 24.5877 29.7195C24.4995 29.7652 24.411 29.8032 24.3504 29.8858C24.2932 29.9635 24.1967 29.9462 24.1248 29.9857L23.8783 30.121C23.7396 30.1972 23.6022 30.288 23.4474 30.3458L23.0954 30.477L22.9334 30.5409L22.3409 30.751C22.2393 30.7871 21.3917 31.0578 21.3917 31.0578L21.165 31.0602C21.377 31.0602 20.0972 31.2923 20.1207 31.2813C19.9694 31.3168 19.8398 31.3596 19.6834 31.3668L19.4177 31.3791C19.244 31.3871 19.0799 31.428 18.9018 31.4374L18.1639 31.4756C18.0334 31.4823 17.9203 31.4981 17.7854 31.4836C17.6426 31.4681 17.5004 31.5034 17.3545 31.4652C17.2428 31.4358 17.1104 31.4772 17.0011 31.4419C16.9282 31.4184 16.8907 31.5029 16.6357 31.45C16.4975 31.4216 16.3703 31.4182 16.2337 31.4056C16.0586 31.3893 15.8924 31.3324 15.7272 31.3254C15.6326 31.3214 15.5494 31.2872 15.4538 31.2778C15.3089 31.2634 14.9277 31.2035 14.8098 31.1458C14.7534 31.1183 14.3787 31.1076 14.3544 31.0055C14.3071 30.9966 14.2386 31.0335 14.2028 31.0097C14.1478 30.9731 14.1109 30.9988 14.0489 30.9883C13.8316 30.9517 13.7907 30.8742 13.6608 30.8191L13.4303 30.7216C13.348 30.6866 13.3015 30.6283 13.2082 30.6176C13.1962 30.6085 12.791 30.48 12.8498 30.48C12.7276 30.4719 12.6434 30.4602 12.5346 30.392C12.5042 30.373 12.2313 30.2501 12.2299 30.2501C12.0666 30.2258 11.8129 30.0109 11.5857 29.9168C11.3658 29.8256 11.2968 29.7526 11.2738 29.7462C11.1859 29.7222 11.1362 29.6644 11.0659 29.6249L10.3931 29.2469C10.3188 29.205 10.2699 29.1523 10.1948 29.1034L9.98626 28.9681C9.83283 28.8687 9.4498 28.5434 9.3477 28.4814C9.18278 28.3814 9.00823 28.081 8.83609 28.0361C8.75778 28.0155 8.74121 27.9503 8.70432 27.9067L8.57816 27.7584C8.5541 27.7298 8.13846 27.3368 8.03929 27.1289C8.03769 27.1251 7.86715 26.9084 7.79071 26.7421C7.72389 26.5964 7.61697 26.4542 7.62098 26.285C7.62285 26.2035 7.6028 26.1477 7.55602 26.0768C7.51967 26.0218 7.57607 25.9242 7.55121 25.8624C7.51112 25.7633 7.53785 25.6788 7.53919 25.5786C7.54293 25.3158 7.65867 24.9168 7.84149 24.7358L7.81396 24.693C7.81396 24.693 7.915 24.5324 8.03582 24.5444C8.0278 24.5025 8.01149 24.4787 8.02325 24.4698C8.12028 24.3993 8.16251 24.5166 8.25901 24.4773C8.39159 24.4236 8.50706 24.4666 8.63429 24.4752C8.85213 24.4899 9.01304 24.4942 9.21325 24.5736C9.28622 24.6027 9.35705 24.6024 9.42334 24.6674C9.476 24.7187 9.5765 24.6901 9.64199 24.7099C9.93521 24.7989 10.0044 24.9261 10.2693 25.0314C10.345 24.9103 10.2549 24.7775 10.3386 24.723C10.5342 25.0689 10.4078 25.2274 10.8133 25.496C10.8702 25.5337 10.9066 25.5914 10.9793 25.6272C11.0755 25.6748 11.1661 25.7542 11.2463 25.8274C11.4476 26.0111 11.9554 26.3904 12.1693 26.5141L12.6057 26.7664C12.7017 26.822 12.7691 26.906 12.8915 26.9477C12.9821 26.9784 13.436 27.2358 13.4851 27.2371C13.5803 27.2398 13.6613 27.3302 13.7484 27.3644C13.8193 27.3924 13.8994 27.3946 13.9599 27.4432C14.0232 27.494 14.1109 27.4849 14.1715 27.5149L14.3581 27.6068C14.6126 27.7324 14.851 27.7624 15.1132 27.8313L15.6751 27.9789C15.7515 27.9989 15.7988 28.0551 15.8886 28.0511C15.9135 28.05 16.6903 28.163 16.7814 28.1761L17.1316 28.2267C17.2222 28.2398 17.3237 28.2096 17.4192 28.2189C17.5322 28.2301 17.6381 28.2414 17.7503 28.2026C17.8361 28.1729 17.9278 28.2561 18.0069 28.2478C18.1475 28.2328 18.2721 28.2427 18.4074 28.2502C18.5985 28.2606 18.7939 28.1558 18.9732 28.1842C19.093 28.2031 19.1871 28.1836 19.306 28.1521C19.437 28.1173 19.6019 28.1751 19.7299 28.1096C19.7772 28.0853 19.7917 28.0569 19.8596 28.0527L20.0806 28.0388L20.4203 27.9797C20.5275 27.961 20.6398 27.8746 20.7462 27.8856C20.8253 27.8939 20.8528 27.8647 20.914 27.8474C21.0963 27.7958 21.2703 27.7503 21.4481 27.6811C21.5344 27.6474 21.624 27.6194 21.7183 27.5985C21.8068 27.5787 21.8937 27.4224 21.9594 27.5023C21.976 27.5226 21.9902 27.4871 22.0343 27.4275C22.0442 27.4144 22.0661 27.4331 22.088 27.443C22.4085 27.3582 22.2609 27.2933 22.4678 27.2837C22.6012 27.2775 22.6974 27.1722 22.8145 27.1214L23.1457 26.9781C23.2371 26.9383 23.3036 26.8923 23.3852 26.8362L23.6728 26.6384L23.8532 26.5555C23.8545 26.555 24.2688 26.2808 24.2862 26.265C24.3723 26.1861 24.4944 26.1364 24.5923 26.072C24.6706 26.0204 24.7075 25.9523 24.7676 25.8967C24.7676 25.8967 24.7676 25.8964 24.7679 25.8964C24.7812 25.8868 25.2161 25.5238 25.2161 25.5179C25.35 25.427 25.4329 25.3102 25.5342 25.1956C25.6171 25.102 25.6962 25.0338 25.6369 24.8959C25.624 24.866 25.6438 24.8144 25.574 24.7992C25.5468 24.7933 25.547 24.7548 25.5422 24.7259C25.5355 24.685 25.6029 24.723 25.6184 24.704C25.6783 24.6305 25.67 24.5158 25.6665 24.4193C25.944 24.3923 25.863 24.6276 25.9686 24.7379C26.2888 24.321 26.1054 24.7158 26.474 24.1534C26.5232 24.0783 26.6536 24.0344 26.679 23.9526C26.7237 23.8104 26.922 23.7171 27.1008 23.2678C27.1348 23.1826 27.2163 23.1593 27.2532 23.0952L27.4871 22.6915C27.591 22.5114 27.6862 22.3379 27.7822 22.1596C27.8249 22.08 27.8583 21.9626 27.9551 21.8509C27.9808 21.8215 28.1545 21.4112 28.1545 21.3986C28.1545 21.3986 28.1545 21.3986 28.154 21.3989C28.2515 21.2337 28.2833 21.08 28.3333 20.9036C28.4221 20.5922 28.5669 20.3778 28.5763 20.0584C28.5798 19.9363 28.6928 19.8098 28.6621 19.6709C28.649 19.6115 28.6821 19.5605 28.7254 19.5246C28.6648 19.3897 28.6781 19.2357 28.7463 19.1018C28.7944 19.0066 28.7725 18.9307 28.7706 18.8294C28.7677 18.6605 28.8425 18.3868 28.8203 18.2692C28.8064 18.1967 28.8356 18.116 28.8404 18.054C28.8495 17.9428 28.8516 17.81 28.8479 17.6849L28.8366 17.3064L28.8412 16.9971C28.8433 16.8514 28.7447 16.0365 28.6864 15.9394C28.6386 15.8598 28.7016 15.7769 28.6808 15.7122C28.6469 15.6083 28.5798 15.3407 28.5926 15.252C28.6052 15.1627 28.5351 15.0707 28.5271 14.979C28.4908 14.5567 28.4416 14.7035 28.3945 14.6145C28.3782 14.5834 28.4175 14.5426 28.4071 14.507L28.271 14.0411C28.2093 13.8294 28.0649 13.4627 27.977 13.239C27.935 13.1312 27.8714 13.0262 27.8394 12.9219C27.8043 12.8089 27.7458 12.7338 27.695 12.6282L27.5317 12.2887C27.4972 12.2171 27.4889 12.1743 27.4491 12.1233L27.0808 11.652C26.9682 11.508 26.9477 11.316 26.8477 11.1632L26.7277 10.9801C26.5892 10.7686 26.5914 10.7611 26.4179 10.5901C26.4224 10.5946 25.9768 10.0076 25.9875 10.0076L25.8464 9.88255C25.8002 9.84165 25.7831 9.80022 25.736 9.75719C25.5045 9.54549 25.4789 9.36694 25.102 9.16994C25.0419 9.13867 25.017 9.01224 24.8959 9.04138C24.8564 9.05073 24.843 8.94756 24.8152 8.93687C24.7123 8.89704 24.6618 8.77275 24.5829 8.7249C24.4674 8.65514 24.3806 8.5958 24.2846 8.50893C24.2819 8.50679 23.9876 8.40228 23.9486 8.22426C23.5669 8.16733 23.1497 7.71293 23.0994 7.70464L22.8819 7.66882C22.8351 7.66107 22.6891 7.44724 22.594 7.51593C22.6806 7.46408 21.883 7.15615 21.9265 7.17994L21.7822 7.10109C21.7132 7.06367 21.6298 7.02464 21.5497 6.99497C21.486 6.97145 21.446 6.89795 21.3647 6.91452C21.3452 6.91853 21.3091 6.92628 21.3032 6.91799L21.2722 6.87309C21.0926 6.87924 21.083 6.78782 21.0632 6.78862C21.0541 6.78916 21.037 6.8215 21.0276 6.81428L20.956 6.75869C20.9386 6.74505 20.89 6.77927 20.8614 6.78461C20.6858 6.70042 20.4824 6.67716 20.2902 6.62584C20.2225 6.60793 19.9598 6.50502 19.8948 6.51839C19.8163 6.53443 19.7534 6.48017 19.6842 6.45477C19.5538 6.40693 19.4156 6.43125 19.2843 6.41869C19.2119 6.41201 19.1568 6.36844 19.0753 6.3965C19.055 6.40345 19.02 6.39303 19.008 6.38341C18.9951 6.37298 18.9959 6.32326 18.977 6.32433C18.9505 6.33663 18.9553 6.35855 18.9526 6.37432C18.9505 6.38581 18.9374 6.39971 18.9184 6.36122L18.4549 6.32327C18.3416 6.31391 18.2625 6.30963 18.1537 6.29092C18.1401 6.29253 17.7116 6.28558 17.6712 6.24816C17.517 6.34171 17.3251 6.31712 17.1479 6.31525C16.8937 6.31257 16.6421 6.31097 16.4029 6.3393L16.1086 6.37432C15.9301 6.39543 15.7368 6.36683 15.5663 6.43286C15.5126 6.4537 15.4749 6.47322 15.4115 6.48819L14.859 6.61969C14.7529 6.64509 14.6171 6.6376 14.5353 6.72527C14.4733 6.79183 14.441 6.88004 14.3349 6.91666C14.4113 7.15054 14.2897 7.34967 14.0884 7.44964C13.8976 7.54453 13.7201 7.55148 13.518 7.55362C13.3804 7.55496 13.2956 7.56939 13.1577 7.50096C13.0401 7.44242 12.8575 7.4173 12.7367 7.40527C12.606 7.39217 12.5256 7.49588 12.4352 7.5333C12.2567 7.60761 12.1064 7.69555 11.9752 7.83775C11.8672 7.64824 11.3511 8.12242 11.3596 8.11707L11.0004 8.34508C10.7686 8.49209 10.5625 8.67224 10.3672 8.86817C10.3332 8.89624 10.4054 9.28755 10.4048 9.28595C10.4137 9.30573 10.4677 9.30466 10.4842 9.32792C10.531 9.39394 10.4321 9.44178 10.4203 9.49925C10.3738 9.73099 10.2372 9.47413 10.3819 10.0534C10.3092 10.0942 10.2509 10.0285 10.1915 9.95926C10.1453 9.94242 10.0729 10.0312 10.0587 10.079C9.99775 10.2843 9.80263 10.0344 9.59467 10.3134C9.47252 10.241 9.53667 10.0576 9.32551 10.0269C9.29878 10.0231 9.29049 9.97851 9.2635 9.95606C9.00636 10.0622 8.83529 10.3968 8.65407 10.5623C8.64658 10.5692 8.61023 10.5433 8.59687 10.5481C8.58698 10.5519 8.59259 10.5735 8.58457 10.589C8.56426 10.6288 8.31701 10.8296 8.24618 10.9838C8.20368 11.0768 8.21811 11.1771 8.13391 11.258C8.0834 11.3064 8.03341 11.3823 8.02138 11.4532C8.00668 11.5395 7.94039 11.5702 7.9011 11.6333L7.59959 12.1166C7.56217 12.1765 7.5162 12.2473 7.46488 12.2943C7.29621 12.4496 7.27537 12.613 7.27082 12.6212C7.06153 12.993 7.15909 13.0652 7.12194 13.1323L6.93296 13.4755C6.86694 13.5955 6.78729 13.6976 6.77499 13.8473C6.75976 14.0318 6.52881 14.1536 6.57666 14.3335C6.59884 14.4175 6.59911 14.4947 6.61274 14.5744C6.69855 15.0814 6.5085 15.0686 6.76377 15.6104C6.79744 15.682 6.75815 15.8443 6.72127 15.902C6.65097 15.9499 6.52347 15.9611 6.52774 16.0848C6.53683 16.3623 6.69373 16.2519 6.72046 16.388C6.77446 16.4104 6.75441 16.4353 6.70683 16.4051L6.5812 16.3503C6.55287 16.338 6.5379 16.3925 6.54191 16.4088C6.56035 16.4807 6.69614 16.4235 6.63921 16.4794C6.5804 16.5368 6.55741 16.4681 6.44515 16.431C6.39089 16.4719 6.26981 16.477 6.26286 16.5416L6.23239 16.8303C6.22383 16.9118 6.17438 16.9656 6.15701 17.0679C6.13883 17.1746 5.89078 17.4456 5.90228 17.6287C5.91404 17.8204 5.87769 18.0216 5.91618 18.2109C5.95493 18.4017 6.03485 18.5814 6.02897 18.7826C6.0247 18.9275 6.12894 19.0387 6.20138 19.152C6.10034 19.3653 6.10702 19.6115 6.11317 19.8465L6.1236 20.2399C6.12787 20.4006 6.16583 20.5612 6.2094 20.717L6.28959 21.0036C6.33315 21.1594 6.37031 21.3038 6.42885 21.4548H6.42858C6.42858 21.4655 6.49433 21.7261 6.42083 21.74C6.37325 21.7491 6.35213 21.62 6.31391 21.6119C6.1979 21.5876 6.31231 21.9723 6.33422 22.038C6.25617 22.0452 6.25778 21.8186 6.21073 21.7194C6.27569 21.5975 6.21875 21.5034 6.18989 21.3855C6.1546 21.2407 6.13349 21.0995 6.08056 20.9565C6.03352 20.8298 5.95654 20.7104 5.93943 20.5655C5.92714 20.4602 5.90495 20.3621 5.86753 20.2672C5.86298 20.256 5.91217 20.2338 5.88383 20.2193C5.82022 20.187 5.82289 20.1236 5.81835 20.064C5.80231 19.8556 5.6267 19.4926 5.70795 19.3629C5.80552 19.2068 5.71865 19.144 5.65476 19.032C5.55185 18.8508 5.56201 18.6025 5.42703 18.4261C5.40217 18.3935 5.33722 18.3927 5.3284 18.3373C5.32278 18.302 5.29793 18.2766 5.27173 18.2726C5.24286 18.2681 5.21961 18.2785 5.1862 18.297C5.18513 18.235 5.19742 18.1919 5.20571 18.1363C5.03224 18.0037 5.11002 17.7199 5.23404 17.5972C5.39308 17.44 5.22442 17.1508 5.30782 16.9832C5.35887 16.9984 5.37811 17.0284 5.4289 17.0372C5.66893 16.4144 5.37277 16.3038 5.36956 16.2789C5.36475 16.2447 5.3725 16.2169 5.42115 16.195C5.4444 16.1843 5.45884 16.2166 5.52673 16.2436C5.52726 16.0661 5.57912 15.9116 5.61601 15.7427C5.63391 15.662 5.61841 15.5783 5.68898 15.511C5.76997 15.4342 5.755 15.3284 5.71517 15.2447C5.67107 15.1523 5.75767 15.0924 5.79162 15.0325C5.84695 14.9349 5.85203 14.8187 5.88784 14.72C5.91805 14.6361 5.88864 14.5709 5.89292 14.4939C5.90174 14.3357 5.87902 14.1622 5.77799 14.036C5.89426 13.7089 5.67214 13.8537 5.86405 13.4678C5.89265 13.4106 5.89506 13.3347 5.92045 13.2756C5.94798 13.2117 5.86512 13.1433 5.86352 13.0805C5.86004 12.9505 5.96937 12.8458 5.96857 12.7308L5.96643 12.4694C6.35748 12.2037 6.24949 12.1551 6.29386 12.0693C6.30455 12.0487 6.33877 12.0583 6.38902 12.0706C6.44168 12.0268 6.4104 11.9426 6.45451 11.8915C6.50984 11.8274 6.57666 11.7694 6.58682 11.6764C6.60473 11.5187 6.69881 11.4077 6.76483 11.2752C6.8779 11.0482 7.07008 10.9004 7.28071 10.7694C7.31466 10.6834 7.32134 10.538 7.41249 10.4725C7.52047 10.3947 7.55763 10.2592 7.64477 10.1744C7.71186 10.1095 7.8006 10.1044 7.86181 10.0082C7.99412 9.80156 8.16946 9.57543 8.19379 9.31562C8.20635 9.18064 8.19192 9.13039 8.32209 9.05047C8.37635 9.01732 8.37127 8.85801 8.47498 8.83449C8.52256 8.86977 8.53165 8.94275 8.58163 8.99514C8.64338 8.96974 8.71982 8.93874 8.75591 8.8802C8.79065 8.82433 8.74254 8.7658 8.73452 8.70619L8.88955 8.72704C9.47493 8.45306 9.24987 8.35497 9.57757 8.07003C9.65268 8.00454 9.7032 7.91687 9.79354 7.85967C9.83123 7.83588 9.85448 7.77948 9.8617 7.74848C9.87774 7.67791 9.76708 7.62846 9.79942 7.52796C9.8307 7.42959 10.2402 7.48198 10.311 7.25238C10.341 7.15455 10.2474 7.0781 10.2062 6.9792C10.2995 6.96236 10.4425 7.0324 10.5254 6.96236C10.6318 6.79156 10.7275 6.60606 10.8061 6.42003C10.793 6.44061 10.8793 6.0271 11.0391 6.02978C11.1722 6.03218 11.323 6.05918 11.4489 5.97899C11.4778 6.00465 11.5074 6.02897 11.5293 6.03165C11.5665 6.03592 11.5962 6.01187 11.6347 5.97498C11.6964 6.06934 11.7408 6.21421 11.8525 6.27783C11.9257 6.31952 12.0188 6.21956 12.0837 6.20298C12.1551 6.18481 12.2152 6.18213 12.2815 6.15674C12.6159 6.02978 12.946 5.92019 13.2571 5.7427C13.4859 5.61226 13.7359 5.54544 13.9823 5.45242C14.0906 5.41153 14.1977 5.33508 14.3076 5.32332C14.3726 5.31664 14.4084 5.31289 14.4819 5.28884L14.7607 5.19716L14.9259 5.15118C14.9833 5.13514 15.0598 5.13033 15.1269 5.10734L15.8071 4.87426C15.8117 4.75452 15.8186 4.66203 15.8475 4.55886L15.975 4.53186C15.971 4.449 15.9322 4.39233 15.8844 4.29718C16.0135 4.32444 16.076 4.41452 16.1407 4.52251C16.1819 4.59174 16.2471 4.65054 16.2821 4.72298C16.3281 4.81787 16.4067 4.8053 16.4901 4.78312C16.5483 4.76735 16.6101 4.81546 16.6544 4.77296C16.701 4.72832 16.7704 4.69464 16.76 4.60991C16.7472 4.50727 16.678 4.36935 16.7408 4.27954L16.9493 3.98124C16.9832 3.93259 17.0329 3.89971 17.0957 3.8957C17.1051 4.11087 17.1714 4.01732 17.1682 4.21539C17.1676 4.24906 17.1027 4.23623 17.0741 4.26965C16.9779 4.38244 17.0057 4.57703 17.0952 4.68529C17.1513 4.75318 17.2321 4.69224 17.2855 4.71015C17.425 4.75719 17.6715 4.70908 17.8124 4.68609C17.791 4.69304 18.471 4.68903 18.4974 4.69518C18.5851 4.71496 18.6418 4.67166 18.7214 4.67353C18.8086 4.67567 18.8869 4.75746 18.9834 4.72111C19.062 4.69117 19.1753 4.74703 19.2536 4.68368C19.275 4.66604 19.2729 4.60563 19.3047 4.6035C19.3766 4.59895 19.4367 4.72752 19.6006 4.74757C19.7871 4.77082 19.9761 4.8315 20.1616 4.82882C20.2814 4.82695 20.6609 4.88576 20.7777 4.91489C20.8325 4.92853 21.1396 4.91516 21.2441 5.04934C21.4091 5.09879 21.4187 5.01032 21.5301 5.13568C21.6523 5.12071 21.7571 5.15947 21.876 5.18352C22.2136 4.94777 22.0415 4.85208 22.0979 4.77563C22.1775 4.66818 22.2238 4.55538 22.2917 4.44152C22.3181 4.54549 22.2409 4.619 22.2559 4.70908C22.2722 4.80744 22.2417 4.87801 22.1567 4.95419C22.2943 5.0611 22.3751 5.214 22.4389 5.35326C22.5242 5.33642 22.5956 5.42997 22.6504 5.4412C22.7715 5.46605 22.9388 5.48396 23.0612 5.55319C23.1556 5.60665 23.2505 5.66225 23.3512 5.69192C23.4106 5.70956 23.4699 5.72292 23.4998 5.7689C23.5071 5.77799 23.5493 5.76168 23.56 5.76435C23.5747 5.7681 23.5728 5.80605 23.5918 5.8138L24.0978 6.01962C24.0879 6.01962 24.8962 6.45958 24.8866 6.49941C24.9961 6.50235 25.0231 6.52988 25.1025 6.58147L25.2645 6.68652C25.2819 6.69801 25.3402 6.65738 25.3586 6.66727C25.3821 6.67983 25.3995 6.70309 25.4169 6.7349C25.4714 6.83487 25.5861 6.8648 25.6598 6.94499C25.6855 6.97279 25.6716 7.02678 25.7248 7.0471C25.8224 7.08425 26.1249 7.29301 26.2206 7.36625C26.2361 7.38362 26.2907 7.36571 26.311 7.37533C26.3452 7.39164 26.3519 7.45713 26.3762 7.48145C26.4321 7.53731 26.5045 7.55602 26.532 7.62713C26.5553 7.59612 26.5726 7.57741 26.5951 7.59959C26.6114 7.6159 26.6261 7.629 26.6381 7.60387C26.7098 7.34219 26.5301 7.45472 26.5612 7.19625C26.6723 7.24115 26.7132 7.31412 26.7357 7.41035C26.7592 7.51139 26.8322 7.6044 26.8252 7.71159C26.8186 7.81797 26.8683 7.91126 26.9755 7.94921C27.0712 7.98289 27.1182 8.05506 27.1823 8.12269C27.2494 8.19325 27.3197 8.24671 27.3783 8.32236C27.4232 8.38036 27.5405 8.40602 27.5579 8.48728C27.5787 8.58404 27.6277 8.58992 27.7046 8.62573C27.7843 8.66262 27.8027 8.80883 27.8797 8.86229C27.9503 8.9112 27.9816 8.97536 28.0305 9.02828L28.1275 9.13386L28.2652 9.29557C28.3598 9.40703 28.4445 9.49631 28.5276 9.60911C28.5779 9.67727 28.6658 9.71095 28.7145 9.80183C28.7492 9.86705 28.8037 9.94563 28.8519 10.0023C28.889 10.0461 28.9569 10.0616 28.9465 10.152C28.9353 10.2485 29.059 10.2773 29.0882 10.3511C29.2934 10.8723 29.4514 10.7705 29.681 11.423C29.7214 11.5376 29.8042 11.6312 29.89 11.7181C29.92 11.7485 30.1477 12.2109 30.1453 12.2657C30.1413 12.3601 30.2191 12.4095 30.2883 12.4446C30.2538 12.5758 30.2918 12.6825 30.3506 12.8001L30.523 13.1457C30.5596 13.2192 30.7114 13.6808 30.7055 13.6808C30.7488 13.7519 30.7897 13.7866 30.8167 13.8735C30.8758 14.0633 30.9159 14.2467 30.9608 14.4386C30.9873 14.5506 31.1094 14.6631 31.0656 14.7965C31.0554 14.8152 30.998 14.8299 31.0046 14.8596C31.01 14.8842 31.0153 14.9267 31.0367 14.9472C31.0971 15.0058 31.1436 15.2522 31.1696 15.3383C31.1902 15.4075 31.2238 15.4642 31.2286 15.5449C31.2546 15.9956 31.3356 15.8563 31.3529 15.9015C31.3572 15.9124 31.3 15.9402 31.3072 15.9523C31.4556 16.2062 31.1861 16.1658 31.4799 16.4296C31.5328 16.3855 31.5406 16.3059 31.5972 16.3056C31.667 16.3051 31.5962 16.3687 31.6026 16.389C31.6258 16.4636 31.6515 16.5133 31.5999 16.582H31.6002Z" fill="var(--fill-0, white)"/>
<path id="Vector_2" d="M17.1599 14.8497C17.1604 15.0491 17.4726 14.9841 17.5143 15.0435C17.5272 15.0616 17.5403 15.1341 17.5173 15.1341L16.2145 15.1397C16.1805 15.1397 16.184 15.0699 16.1968 15.055C16.261 14.9793 16.4909 15.0429 16.567 14.8753V11.7453C16.5267 11.6347 16.3225 11.5978 16.2289 11.6248C16.2551 11.9241 16.2222 12.1818 16.0913 12.4085C16.0776 12.2019 16.0856 11.8653 15.9646 11.767C15.9234 11.8359 15.9595 11.8929 15.9082 11.9469C15.8325 11.88 15.7868 11.8017 15.6911 11.7691C15.6695 11.829 15.6786 11.8653 15.6601 11.8974C15.6029 11.825 15.5398 11.7793 15.458 11.7539C15.4262 11.7889 15.4441 11.8301 15.4286 11.8843C15.3591 11.7413 15.1589 11.7745 15.0101 11.8423L15.0146 14.8948C15.0635 15.0354 15.2931 14.9919 15.337 15.0411C15.3535 15.0598 15.3685 15.1397 15.3327 15.1397L14.1291 15.1384C14.0956 15.1384 14.117 15.0763 14.1213 15.0582C14.1368 14.9919 14.4445 15.0231 14.4447 14.8946L14.4525 11.9094C14.4525 11.8541 14.4177 11.8009 14.3605 11.8023C14.0988 11.8073 13.8348 11.7595 13.572 11.8025C13.3766 11.9284 13.5159 12.285 13.3028 12.262L13.3058 11.4513C13.3705 11.5275 13.4643 11.5654 13.5707 11.57C13.9732 11.5871 14.3661 11.6176 14.7711 11.5916L15.8919 11.52L16.2674 11.4922L17.4983 11.4871C17.5445 11.4871 17.5242 11.5414 17.5205 11.5617C17.5047 11.6494 17.1802 11.5748 17.1666 11.7464C17.1388 12.0976 17.1639 12.4384 17.1559 12.7896C17.1545 12.85 17.212 12.8933 17.2652 12.8933L18.36 12.8907C18.4311 12.8907 18.4643 12.8287 18.4608 12.764C18.441 12.417 18.4806 12.0784 18.444 11.7376C18.4295 11.6034 18.1299 11.6154 18.101 11.5849C18.0866 11.5697 18.0735 11.4911 18.096 11.4909L19.3357 11.4762C19.4388 11.4748 19.5262 11.4649 19.6345 11.4652L21.7937 11.4679C21.9338 11.4679 22.0385 11.4313 22.1676 11.3569L22.1636 12.3139C22.1088 12.308 22.0546 12.2802 22.0388 12.2302C21.9934 12.0867 21.8891 11.6841 21.6897 11.6846L20.3484 11.6895L20.3399 12.9415L21.2842 12.9492C21.5342 12.9514 21.4136 12.4136 21.6245 12.4684C21.5951 12.8583 21.5922 13.2269 21.6045 13.622C21.6053 13.6471 21.5323 13.6276 21.5144 13.6121C21.4545 13.5616 21.485 13.2705 21.3567 13.178L20.3503 13.1684L20.3589 14.9724L21.6702 14.9774C21.7571 14.9777 21.8236 14.9317 21.8699 14.8649C22.0201 14.6995 22.0025 14.2924 22.1735 14.3656L22.1198 15.2891L21.9193 15.195L19.4212 15.1854C19.3894 15.1854 19.3987 15.0659 19.4495 15.0622C19.5321 15.0563 19.7056 15.0469 19.7516 14.9526L19.7486 11.6985C19.572 11.5085 19.0481 11.6202 19.0475 11.7536L19.0379 13.9647C19.0374 14.0914 19.0908 14.1876 19.1689 14.2809C19.1387 14.3041 19.1066 14.2988 19.0705 14.3196C19.0986 14.4105 19.1788 14.4514 19.2627 14.4856C19.1964 14.5305 19.1408 14.4942 19.0689 14.5086C19.1486 14.6246 19.2721 14.6791 19.3955 14.7278C19.2974 14.7807 19.2068 14.7462 19.101 14.7513C19.1969 14.8932 19.3573 14.8844 19.5415 14.9411C19.4215 15.0231 19.2769 15.1175 19.1229 15.1274C18.7826 15.149 18.4531 15.1367 18.1096 15.1394C18.0727 15.1397 18.085 15.0707 18.0911 15.0512C18.1067 15.0018 18.4456 15.0239 18.4466 14.8842L18.4581 13.2216C18.4584 13.1799 18.4199 13.1056 18.375 13.1045C17.9888 13.0962 17.617 13.0919 17.231 13.1067C17.1807 13.1085 17.157 13.1999 17.157 13.2424L17.1604 14.8486L17.1599 14.8497Z" fill="var(--fill-0, white)"/>
<path id="Vector_3" d="M17.536 19.2576C17.4269 19.3437 17.4269 19.4661 17.3735 19.5741C17.354 19.6139 17.2842 19.6284 17.3219 19.7123L15.902 19.7067C15.8782 19.7067 15.8916 19.615 15.91 19.6048C15.9319 19.5928 16.2444 19.5353 16.1934 19.3701C16.0872 19.0264 15.9373 18.7185 15.8034 18.3814L14.9347 18.3785C14.8874 18.3785 14.7949 18.4119 14.7759 18.4667C14.6599 18.8005 14.5222 19.1234 14.4463 19.4747C14.5043 19.654 14.8593 19.4968 14.7914 19.708L13.8481 19.72C13.7238 19.7216 13.615 19.704 13.4873 19.7037L11.2861 19.7C11.2613 19.7 11.273 19.6233 11.2944 19.6129C11.4083 19.5567 11.5791 19.5963 11.6582 19.4447L11.6542 16.2957C11.5622 16.1118 11.2519 16.2364 11.3067 16.0584H12.5833C12.6335 16.0581 12.6098 16.1113 12.6076 16.1327C12.5999 16.2118 12.2486 16.1613 12.2484 16.3201L12.2438 19.4904L13.557 19.4974C13.6565 19.3699 13.6843 19.2293 13.6792 19.078C13.7294 19.0529 13.7679 19.0154 13.8054 18.9917C13.8414 19.1721 13.7752 19.3784 13.8422 19.5581C13.8925 19.6326 14.1157 19.5532 14.1488 19.4602L14.5391 18.3579C14.399 18.2545 14.2052 18.3595 14.1889 18.1655C14.3068 18.1393 14.4685 18.2074 14.5728 18.1411C14.6586 18.0532 14.6933 17.8942 14.7358 17.772L15.3148 16.11C15.3559 15.9921 15.4559 15.9084 15.5802 15.8747C15.5294 15.9934 15.5329 16.0985 15.5847 16.2214L16.8859 19.295C16.9581 19.4653 17.0976 19.5805 17.2751 19.5837L17.463 18.4742C17.4753 18.4394 17.5079 18.4461 17.5127 18.46C17.5186 18.4769 17.571 18.4982 17.5702 18.5226C17.5587 18.9195 17.7787 19.2798 18.1548 19.4362C18.3945 19.5361 18.673 19.5704 18.9264 19.4942C19.2755 19.3894 19.4498 19.0229 19.3677 18.6736C19.1967 17.946 18.1192 17.7907 17.9725 17.6557C17.9551 17.6397 17.9276 17.6277 17.9094 17.6298C17.88 17.633 17.8741 17.6667 17.8583 17.7081C17.7634 17.6236 17.7234 17.4432 17.6242 17.4782L17.5884 17.2951C17.5785 17.2452 17.4937 17.193 17.5397 17.1289C17.5964 17.05 17.5167 16.9787 17.5218 16.9273C17.5801 16.3361 18.1296 15.9445 18.7174 16.0469C18.974 16.0915 19.1785 16.2292 19.3875 16.3882C19.4656 16.3187 19.4517 16.0838 19.6313 16.1215L19.4495 17.1797C19.2507 17.2131 19.4335 16.806 19.1194 16.4582C18.9561 16.2773 18.7067 16.1928 18.4597 16.2115C18.2363 16.2284 18.0273 16.3957 17.9778 16.6157C17.9187 16.8776 18.0764 17.1267 18.3149 17.2174L19.032 17.4892C19.2932 17.5881 19.5249 17.7431 19.7024 17.958C19.8558 18.1441 19.901 18.3766 19.9136 18.6164C19.9323 18.9727 19.7783 19.2854 19.4763 19.4773C18.8441 19.8785 18.1104 19.7484 17.5376 19.2587L17.536 19.2576ZM15.1386 18.0986C15.0421 18.097 14.9996 18.0901 14.9291 18.0805C14.8981 18.2636 15.4757 18.1866 15.6481 18.1933L15.2552 17.1896C15.1429 17.2893 15.1897 17.4184 15.1942 17.5488C15.1747 17.5419 15.1269 17.4745 15.1119 17.5125C15.0632 17.6354 15.0908 17.7621 15.1469 17.8682C15.094 17.8987 15.0638 17.8559 15.0109 17.8428C15.0052 17.954 15.0675 18.0377 15.1386 18.0986Z" fill="var(--fill-0, white)"/>
<path id="Vector_4" d="M20.3383 19.2568C20.1988 19.3691 20.2135 19.611 20.1442 19.6064C20.1239 19.6051 20.0811 19.5952 20.0886 19.5498L20.2672 18.4456C20.3639 18.456 20.3762 18.5354 20.3792 18.6177C20.403 19.3095 21.1567 19.6655 21.7298 19.4939C22.0789 19.3894 22.2532 19.0227 22.1711 18.6733C22.0001 17.9457 20.9226 17.7904 20.7758 17.6555C20.7585 17.6394 20.7309 17.6274 20.7128 17.6295C20.6834 17.6327 20.6775 17.6664 20.6614 17.7078C20.5639 17.6186 20.5299 17.4512 20.43 17.475C20.3931 17.4291 20.4265 17.3467 20.392 17.2949C20.3613 17.2486 20.2974 17.1922 20.3428 17.1286C20.3995 17.0495 20.3198 16.9784 20.3249 16.9268C20.3832 16.3364 20.9333 15.9429 21.5203 16.0466C21.7771 16.0921 21.9819 16.2284 22.1904 16.3874C22.2687 16.3187 22.2542 16.0824 22.4344 16.1209L22.2526 17.1789C22.0543 17.2136 22.2355 16.8015 21.9223 16.4572C21.7434 16.2607 21.4607 16.1722 21.1976 16.2212C20.9998 16.2578 20.8242 16.4192 20.7809 16.6143C20.7227 16.8766 20.879 17.1254 21.1182 17.216L21.8351 17.4876C22.0963 17.5865 22.328 17.7413 22.5052 17.9567C22.6584 18.1427 22.7044 18.3753 22.7167 18.6148C22.7348 18.9708 22.5811 19.2846 22.2796 19.4757C21.802 19.7783 21.2027 19.7906 20.7109 19.5105C20.5788 19.4354 20.4679 19.3554 20.3386 19.2565L20.3383 19.2568Z" fill="var(--fill-0, white)"/>
<path id="Vector_5" d="M10.8977 19.3715C10.6483 19.6054 10.3738 19.7035 10.0421 19.716C9.41986 19.7395 8.83102 19.4811 8.47124 18.9636C8.18684 18.5546 8.17454 18.1614 8.15156 17.6784C8.0989 17.6739 8.0858 17.722 8.0449 17.7127C8.08714 17.4927 8.18924 17.3117 8.27451 17.1096C8.21009 17.0848 8.16599 17.1433 8.10558 17.166C8.13231 17.0471 8.21143 16.968 8.29082 16.8881L8.5271 16.6499C8.47685 16.6063 8.38624 16.6416 8.43008 16.5919C8.59419 16.4061 8.84919 16.4227 8.81471 16.281C8.91147 16.1998 9.41425 16.2089 9.29664 16.1084C9.19801 16.0242 10.0162 16.0886 10.0691 16.0926C10.4332 16.1201 10.7245 16.2832 10.9699 16.5633C11.0958 16.4556 11.0602 16.1626 11.2377 16.2222L11.0445 17.3662C10.8381 17.2665 11.0619 16.9845 10.6703 16.5689C10.3386 16.2171 9.75639 16.1642 9.36721 16.4628C8.56827 17.0757 8.46322 18.8471 9.49203 19.3843C9.98546 19.642 10.5748 19.5126 10.9266 19.0956C11.0621 18.935 11.1161 18.7564 11.1669 18.5458C11.2466 18.861 11.1287 19.1555 10.8983 19.3718L10.8977 19.3715Z" fill="var(--fill-0, white)"/>
<path id="Vector_6" d="M25.5249 16.4628C24.7238 17.0778 24.6225 18.8484 25.6491 19.384C26.1867 19.6644 26.8386 19.4845 27.1628 18.9855C27.2478 18.8548 27.2714 18.7193 27.3259 18.5803C27.4039 18.8818 27.2692 19.1742 27.0479 19.3787C26.8041 19.604 26.5318 19.7029 26.2 19.716C25.5698 19.7409 24.9782 19.4728 24.6179 18.95C24.3971 18.6297 24.3397 18.2638 24.3194 17.8861C24.299 17.5084 24.3766 17.1564 24.5685 16.8164C24.778 16.4454 25.0937 16.1832 25.5321 16.1041C25.8862 16.0402 26.2653 16.0645 26.6127 16.1811C26.8218 16.2511 26.9661 16.4107 27.1337 16.5558C27.2444 16.4625 27.2259 16.1533 27.3916 16.2276L27.2027 17.3665C26.9963 17.2722 27.2168 16.9632 26.8151 16.5558C26.4791 16.215 25.9082 16.1682 25.5246 16.4628H25.5249Z" fill="var(--fill-0, white)"/>
<path id="Vector_7" d="M24.0863 19.3156C24.0072 19.3635 23.923 19.3143 23.8305 19.3562C23.9623 19.4851 24.1176 19.4926 24.2822 19.5126C24.1654 19.5907 24.0352 19.6904 23.8762 19.7011C23.5354 19.724 23.182 19.7126 22.8498 19.7069C22.7846 19.545 23.0826 19.6099 23.1874 19.4867L23.1855 16.2995C23.0762 16.1263 22.8907 16.2196 22.8458 16.1396C22.8353 16.1212 22.8305 16.0616 22.8639 16.0619L24.0972 16.0664C24.1558 16.2594 23.7578 16.1832 23.7575 16.3177L23.7514 18.5076C23.7508 18.6519 23.8086 18.765 23.8858 18.8639C23.8449 18.8826 23.7858 18.8858 23.7989 18.92C23.831 19.0034 23.908 19.0299 23.9639 19.0716L23.8011 19.1095C23.8762 19.2108 23.9847 19.24 24.0863 19.3151V19.3156Z" fill="var(--fill-0, white)"/>
<path id="Vector_8" d="M18.0521 22.7022L18.0492 21.3837L17.4184 22.792C17.3943 22.8455 17.3328 22.8754 17.2863 22.8942L17.2879 22.7608L16.5895 21.3457C16.5558 21.7942 16.5809 22.2005 16.5751 22.6274C16.5737 22.7332 16.7715 22.7076 16.7651 22.7733C16.7635 22.7894 16.7509 22.8019 16.7197 22.8025L16.2425 22.8113C16.2343 22.6504 16.4323 22.7699 16.4323 22.6239L16.4313 20.9747C16.365 20.9172 16.2722 20.9536 16.2308 20.8499L16.8017 20.8448C16.8309 20.8686 16.8284 20.9322 16.8426 20.9734L17.4467 22.3572L18.0612 20.995C18.0786 20.9563 18.0452 20.9036 18.0623 20.8518C18.2336 20.844 18.4047 20.8491 18.5894 20.8502C18.6132 20.8502 18.6081 20.887 18.6046 20.8993C18.5875 20.9563 18.3849 20.9015 18.3849 21.0469V22.6263C18.3849 22.7036 18.4683 22.7006 18.498 22.741C18.5276 22.7814 18.4493 22.8129 18.4084 22.8118L17.8664 22.7971C17.8832 22.7092 17.9495 22.7234 18.0519 22.7017L18.0521 22.7022Z" fill="var(--fill-0, white)"/>
<path id="Vector_9" d="M20.7013 21.7876L20.7037 22.7912C20.9595 22.8089 21.1979 22.7979 21.4489 22.7987C21.6122 22.7993 21.6047 22.4943 21.7197 22.4373C21.7336 22.6285 21.7074 22.7958 21.6996 22.9741C21.6384 22.9495 21.6079 22.9217 21.5539 22.9214L20.1608 22.9107C20.2089 22.8046 20.3075 22.8621 20.3728 22.7894L20.3639 20.9485C20.2875 20.8951 20.2046 20.944 20.1563 20.84L21.544 20.833C21.6151 20.8328 21.6601 20.7943 21.7181 20.7494C21.7378 20.9434 21.7306 21.1166 21.7181 21.2987C21.6071 21.3227 21.6264 20.9809 21.4751 20.9619C21.2241 20.9306 20.9809 20.9587 20.7085 20.9504L20.6991 21.6633L21.2086 21.6643C21.3676 21.6646 21.2864 21.4476 21.4179 21.3666C21.3829 21.5187 21.4644 22.5258 21.2858 21.7969C21.0939 21.7769 20.9207 21.7878 20.7013 21.787V21.7876Z" fill="var(--fill-0, white)"/>
<path id="Vector_10" d="M13.2836 22.1481C13.1868 22.3451 13.1339 22.5528 13.0658 22.7613C13.1323 22.8396 13.2211 22.7864 13.2831 22.8784C13.0845 22.9038 12.9048 22.9006 12.7084 22.8803C12.756 22.7928 12.8351 22.8241 12.8944 22.7739L13.1272 22.1225C13.0195 22.1008 12.9399 22.0952 12.9035 22.0145C12.9743 22.0121 13.1026 22.0538 13.1548 21.9993C13.2994 21.659 13.4076 21.3185 13.522 20.9704C13.5586 20.8587 13.5945 20.7553 13.7324 20.7333C13.6808 20.7895 13.6784 20.8582 13.7091 20.9311L14.4474 22.6771C14.4958 22.7915 14.5968 22.78 14.7059 22.876C14.5877 22.9027 13.9059 22.9062 13.8877 22.8696C13.8599 22.814 14.0769 22.8027 14.0518 22.7054C14.0021 22.5117 13.9067 22.3403 13.8364 22.1476L13.2833 22.1481H13.2836ZM13.3857 22.0329C13.5092 22.0487 13.6268 22.0613 13.7449 22.0244L13.5271 21.493C13.4918 21.598 13.2593 22.0169 13.3857 22.0329Z" fill="var(--fill-0, white)"/>
<path id="Vector_11" d="M10.4893 22.0279C10.4594 22.0206 10.4802 21.9685 10.4928 21.9592C10.562 21.9068 10.8413 21.9645 11.083 21.9378C11.1191 21.9338 11.1265 21.9776 11.1241 21.9966C11.1118 22.0885 10.9269 22.0145 10.9103 22.2254C10.8935 22.4408 10.9258 22.6571 10.8975 22.868C10.8654 22.9094 10.7684 22.8546 10.748 22.7811C10.3014 22.9952 9.69972 22.938 9.52946 22.3927C9.43671 22.0957 9.42601 21.7707 9.50968 21.4703C9.61553 21.0913 9.92291 20.8405 10.3148 20.8205C10.5286 20.8095 10.7352 20.8507 10.9461 20.8937C10.9466 20.9817 10.9827 21.3144 10.9124 21.3147C10.8491 21.3147 10.8651 20.9769 10.4733 20.9349C10.2097 20.9066 9.99856 21.0349 9.88817 21.2765C9.66765 21.76 9.75585 22.7803 10.299 22.7979C10.434 22.8022 10.5687 22.757 10.6377 22.6266C10.6935 22.5215 10.666 22.3954 10.6724 22.2791C10.6799 22.1476 10.6246 22.0605 10.4893 22.0276V22.0279Z" fill="var(--fill-0, white)"/>
<path id="Vector_12" d="M24.6527 22.6648C24.3226 23.0123 23.7909 22.938 23.4616 22.6357C23.3742 22.7009 23.4226 22.8043 23.3272 22.8519C23.3346 22.6218 23.3873 22.4264 23.4122 22.2142C23.4135 22.2016 23.4402 22.1987 23.4461 22.1957C23.4544 22.1914 23.4638 22.2112 23.476 22.2265C23.4726 22.5432 23.7065 22.7613 24.0138 22.791C24.1916 22.8081 24.3538 22.7584 24.4445 22.6108C24.5335 22.4657 24.5145 22.274 24.4006 22.1284C24.2627 21.9519 24.0521 21.8726 23.8454 21.8015C23.5939 21.7151 23.4485 21.5029 23.4841 21.2532C23.5175 21.0194 23.7131 20.8515 23.9751 20.8232C24.1667 20.8023 24.3431 20.9068 24.5009 21.0271C24.5367 20.967 24.5332 20.8956 24.6433 20.8657L24.5249 21.4799C24.4204 21.4812 24.5185 21.1819 24.3047 21.0247C24.1825 20.9352 24.0291 20.8919 23.8917 20.9483C23.7717 20.9974 23.6944 21.107 23.7006 21.2212C23.7169 21.5243 24.0571 21.5165 24.4471 21.7165C24.7831 21.8889 24.9384 22.3636 24.6527 22.6645V22.6648Z" fill="var(--fill-0, white)"/>
<path id="Vector_13" d="M8.38223 8.5827C8.42126 8.62066 8.39987 8.69149 8.36726 8.71661C8.33732 8.7396 8.26409 8.74922 8.23816 8.69603C8.20395 8.62627 8.19753 8.55089 8.15129 8.48621C8.09489 8.40709 8.01711 8.3269 8.02406 8.21784C8.02994 8.12429 8.30632 8.36887 8.33626 8.425C8.35737 8.46482 8.32717 8.52897 8.38223 8.5827Z" fill="var(--fill-0, white)"/>
</g>
<path id="Vector_14" d="M17.7327 34.9654C27.2501 34.9654 34.9654 27.2501 34.9654 17.7327C34.9654 8.21535 27.2501 0.5 17.7327 0.5C8.21535 0.5 0.5 8.21535 0.5 17.7327C0.5 27.2501 8.21535 34.9654 17.7327 34.9654Z" stroke="var(--stroke-0, white)" stroke-miterlimit="10"/>
</g>
</svg>
