<svg preserveAspectRatio="xMidYMid meet" overflow="visible" style="display: block;" viewBox="0 0 15 10" fill="none" xmlns="http://www.w3.org/2000/svg">
<path id="Vector" d="M9.85712 0H1.42857C1.05004 0.00115024 0.687331 0.154655 0.419667 0.426988C0.152003 0.699321 0.00113052 1.06835 0 1.45349V8.54651C0.00113052 8.93165 0.152003 9.30068 0.419667 9.57301C0.687331 9.84535 1.05004 9.99885 1.42857 10H9.85712C10.2357 9.99885 10.5984 9.84535 10.866 9.57301C11.1337 9.30068 11.2846 8.93165 11.2857 8.54651V1.45349C11.2846 1.06835 11.1337 0.699321 10.866 0.426988C10.5984 0.154655 10.2357 0.00115024 9.85712 0ZM7.26427 5.29797L4.94285 6.96221C4.89044 7.0007 4.82834 7.02319 4.76382 7.02705C4.6993 7.03091 4.63504 7.01598 4.57856 6.98401C4.52019 6.95446 4.47116 6.90881 4.43706 6.85227C4.40297 6.79573 4.38517 6.73058 4.38571 6.66424V3.33576C4.38517 3.26942 4.40297 3.20427 4.43706 3.14773C4.47116 3.09119 4.52019 3.04554 4.57856 3.01599C4.63545 2.98542 4.69948 2.97129 4.7637 2.97513C4.82792 2.97898 4.88988 3.00065 4.94285 3.03779L7.26427 4.70204C7.31073 4.73603 7.34857 4.78077 7.37468 4.83258C7.40078 4.88439 7.41439 4.94178 7.41439 5C7.41439 5.05822 7.40078 5.11561 7.37468 5.16742C7.34857 5.21923 7.31073 5.26397 7.26427 5.29797ZM15 1.19913V8.80087C15.0008 8.86453 14.9846 8.92721 14.9532 8.98225C14.9217 9.03728 14.8762 9.0826 14.8214 9.11337C14.7676 9.14668 14.7058 9.1643 14.6428 9.1643C14.5798 9.1643 14.5181 9.14668 14.4643 9.11337L12 7.67442V2.32558L14.4643 0.886628C14.5185 0.854736 14.5801 0.837945 14.6428 0.837945C14.7055 0.837945 14.7671 0.854736 14.8214 0.886628C14.8762 0.9174 14.9217 0.962719 14.9532 1.01775C14.9846 1.07279 15.0008 1.13547 15 1.19913Z" fill="var(--fill-0, #FF6767)"/>
</svg>
