<svg preserveAspectRatio="xMidYMid meet" overflow="visible" style="display: block;" viewBox="0 0 7 12" fill="none" xmlns="http://www.w3.org/2000/svg">
<path id="Vector" d="M5.75 0H1.25C0.550014 0 0 0.549993 0 1.25001V10.75C0 11.45 0.550014 12 1.25 12H5.75C6.44999 12 7 11.45 7 10.75V1.25001C7 0.549993 6.44999 0 5.75 0ZM3.5 11C3.22499 11 2.99999 10.775 2.99999 10.5C2.99999 10.225 3.22499 9.99999 3.5 9.99999C3.77501 9.99999 4.00001 10.225 4.00001 10.5C4.00001 10.775 3.77501 11 3.5 11ZM4.25 1.5H2.75V0.999993H4.25V1.5Z" fill="var(--fill-0, #FF6767)"/>
</svg>
