<svg preserveAspectRatio="xMidYMid meet" overflow="visible" style="display: block;" viewBox="0 0 13 12" fill="none" xmlns="http://www.w3.org/2000/svg">
<path id="Vector" d="M11.6071 3.02848H7.32643L9.83357 0.778868C9.87838 0.738811 9.91459 0.690618 9.94013 0.63704C9.96567 0.583463 9.98003 0.525551 9.9824 0.46661C9.98477 0.40767 9.9751 0.348855 9.95395 0.293524C9.93279 0.238194 9.90057 0.18743 9.85911 0.144133C9.81765 0.100836 9.76777 0.0658524 9.71231 0.0411802C9.65686 0.016508 9.59692 0.00263026 9.53591 0.000339282C9.47491 -0.0019517 9.41403 0.00738892 9.35677 0.0278279C9.2995 0.0482669 9.24696 0.0794041 9.20214 0.119461L6.5 2.54402L3.79786 0.119461C3.70735 0.038562 3.58729 -0.00428756 3.46409 0.000339282C3.34088 0.00496612 3.22463 0.0566902 3.14089 0.144133C3.05716 0.231576 3.01281 0.347574 3.0176 0.46661C3.02239 0.585646 3.07592 0.697969 3.16643 0.778868L5.67357 3.02848H1.39286C1.02345 3.02848 0.66917 3.17026 0.407958 3.42263C0.146747 3.67501 0 4.0173 0 4.37421V10.6543C0 11.0112 0.146747 11.3535 0.407958 11.6058C0.66917 11.8582 1.02345 12 1.39286 12H11.6071C11.9766 12 12.3308 11.8582 12.592 11.6058C12.8533 11.3535 13 11.0112 13 10.6543V4.37421C13 4.0173 12.8533 3.67501 12.592 3.42263C12.3308 3.17026 11.9766 3.02848 11.6071 3.02848ZM8.12732 7.77666L5.34161 9.34667C5.27034 9.38647 5.18946 9.40736 5.10714 9.40723C5.04601 9.4078 4.98537 9.39659 4.92877 9.37424C4.87218 9.3519 4.82076 9.31888 4.77753 9.27711C4.7343 9.23535 4.70012 9.18567 4.677 9.13099C4.65387 9.07631 4.64227 9.01772 4.64286 8.95865V5.81862C4.64311 5.73978 4.66487 5.66239 4.70594 5.59426C4.74701 5.52613 4.80594 5.46966 4.87679 5.43055C4.94764 5.39143 5.02791 5.37104 5.10952 5.37145C5.19112 5.37185 5.27117 5.39303 5.34161 5.43285L8.12732 7.00286C8.19714 7.04244 8.25503 7.09897 8.29526 7.16683C8.33549 7.2347 8.35665 7.31155 8.35665 7.38976C8.35665 7.46797 8.33549 7.54482 8.29526 7.61268C8.25503 7.68055 8.19714 7.73708 8.12732 7.77666Z" fill="var(--fill-0, #65FB7D)"/>
</svg>
