<svg preserveAspectRatio="none" width="100%" height="100%" overflow="visible" style="display: block;" viewBox="0 0 20.8471 21" fill="none" xmlns="http://www.w3.org/2000/svg">
<g id="Group">
<path id="Vector" d="M8.79644 9.7625V1.62708C8.79644 0.729293 9.52574 0 10.4235 0C11.3213 0 12.0506 0.729293 12.0506 1.62708V9.7625C12.0506 10.6603 11.3213 11.3896 10.4235 11.3896C9.52574 11.3896 8.79644 10.6603 8.79644 9.7625ZM16.8731 2.38575C16.346 1.9684 15.577 2.05999 15.1596 2.58795C14.7423 3.11678 14.833 3.88409 15.3618 4.30231C17.2974 5.82916 18.4069 8.11554 18.4069 10.5765C18.4069 14.9782 14.8252 18.5598 10.4244 18.5598C6.02271 18.5598 2.44106 14.9782 2.44106 10.5765C2.44106 8.11641 3.54968 5.83089 5.48352 4.3049C6.01234 3.88754 6.10307 3.12023 5.68572 2.59054C5.26836 2.06172 4.50191 1.97186 3.97136 2.38835C1.44735 4.38008 0 7.36465 0 10.5765C0 16.3244 4.67646 21 10.4235 21C16.1706 21 20.8471 16.3235 20.8471 10.5765C20.8471 7.36292 19.398 4.37835 16.8731 2.38575Z" fill="var(--fill-0, white)"/>
</g>
</svg>
