<svg preserveAspectRatio="none" width="100%" height="100%" overflow="visible" style="display: block;" viewBox="0 0 38 38" fill="none" xmlns="http://www.w3.org/2000/svg">
<g id="Airplane Mode">
<rect width="38" height="38" rx="19" fill="var(--fill-0, #111111)" fill-opacity="0.6" style="mix-blend-mode:luminosity"/>
<rect width="38" height="38" rx="19" fill="var(--fill-1, #6A9863)" style="mix-blend-mode:color-dodge"/>
<rect width="38" height="38" rx="19" fill="var(--fill-2, #222222)" style="mix-blend-mode:plus-lighter"/>
<path id="Vector" d="M19 9C16.3769 9.00369 13.8613 10.0426 12 11.891V10C12 9.73478 11.8946 9.48043 11.7071 9.29289C11.5196 9.10536 11.2652 9 11 9C10.7348 9 10.4804 9.10536 10.2929 9.29289C10.1054 9.48043 10 9.73478 10 10V14C10 14.2652 10.1054 14.5196 10.2929 14.7071C10.4804 14.8946 10.7348 15 11 15H15C15.2652 15 15.5196 14.8946 15.7071 14.7071C15.8946 14.5196 16 14.2652 16 14C16 13.7348 15.8946 13.4804 15.7071 13.2929C15.5196 13.1054 15.2652 13 15 13H13.716C15.0894 11.7918 16.8354 11.0908 18.6629 11.0137C20.4905 10.9366 22.2893 11.4882 23.7595 12.5764C25.2298 13.6647 26.2827 15.2239 26.7428 16.9943C27.2029 18.7647 27.0424 20.6393 26.2881 22.3057C25.5337 23.9721 24.2311 25.3297 22.5973 26.1522C20.9635 26.9747 19.0971 27.2125 17.3093 26.8259C15.5214 26.4393 13.92 25.4517 12.7719 24.0277C11.6239 22.6036 10.9985 20.8292 11 19C11 18.7348 10.8946 18.4804 10.7071 18.2929C10.5196 18.1054 10.2652 18 10 18C9.73478 18 9.48043 18.1054 9.29289 18.2929C9.10536 18.4804 9 18.7348 9 19C9 20.9778 9.58649 22.9112 10.6853 24.5557C11.7841 26.2002 13.3459 27.4819 15.1732 28.2388C17.0004 28.9957 19.0111 29.1937 20.9509 28.8078C22.8907 28.422 24.6725 27.4696 26.0711 26.0711C27.4696 24.6725 28.422 22.8907 28.8078 20.9509C29.1937 19.0111 28.9957 17.0004 28.2388 15.1732C27.4819 13.3459 26.2002 11.7841 24.5557 10.6853C22.9112 9.58649 20.9778 9 19 9Z" fill="var(--fill-0, white)"/>
</g>
</svg>
