<svg preserveAspectRatio="none" width="100%" height="100%" overflow="visible" style="display: block;" viewBox="0 0 50 50" fill="none" xmlns="http://www.w3.org/2000/svg">
<g id="tik-tok 1" clip-path="url(#clip0_0_111)">
<path id="Vector" d="M46.8021 20.5542C42.3458 20.5542 38.2146 19.1292 34.8437 16.7083V34.1771C34.8437 42.9021 27.7458 49.9979 19.0229 49.9979C15.6521 49.9979 12.525 48.9354 9.95625 47.1313C5.87708 44.2667 3.20208 39.5292 3.20208 34.1771C3.20208 25.4521 10.3 18.3542 19.025 18.3542C19.75 18.3542 20.4583 18.4146 21.1562 18.5083V20.5438V27.2833C20.4812 27.0729 19.7687 26.95 19.025 26.95C15.0417 26.95 11.8 30.1917 11.8 34.1771C11.8 36.9521 13.375 39.3625 15.675 40.5729C16.6771 41.1 17.8167 41.4021 19.0271 41.4021C22.9188 41.4021 26.0937 38.3063 26.2396 34.4479L26.2458 -7.45058e-07H34.8417C34.8417 0.745833 34.9146 1.47292 35.0437 2.18125C35.65 5.45625 37.5937 8.26667 40.2875 10.0229C42.1625 11.2458 44.4 11.9604 46.8 11.9604L46.8021 20.5542Z" fill="var(--fill-0, white)"/>
</g>
<defs>
<clipPath id="clip0_0_111">
<rect width="50" height="50" fill="white"/>
</clipPath>
</defs>
</svg>
