<svg preserveAspectRatio="none" width="100%" height="100%" overflow="visible" style="display: block;" viewBox="0 0 50 35.225" fill="none" xmlns="http://www.w3.org/2000/svg">
<g id="XMLID_184_">
<path id="Vector" d="M48.9542 5.5C48.3792 3.33542 46.6854 1.62917 44.5333 1.05C40.6354 3.72529e-07 25 0 25 0C25 0 9.36458 3.72529e-07 5.46458 1.05C3.31458 1.62917 1.62083 3.33333 1.04583 5.5C0 9.425 0 17.6125 0 17.6125C0 17.6125 0 25.8 1.04583 29.725C1.62083 31.8896 3.31458 33.5958 5.46667 34.175C9.36458 35.225 25 35.225 25 35.225C25 35.225 40.6354 35.225 44.5354 34.175C46.6854 33.5958 48.3792 31.8917 48.9562 29.725C50 25.8 50 17.6125 50 17.6125C50 17.6125 50 9.425 48.9542 5.5ZM19.8875 25.0479V10.1771L32.9542 17.6125L19.8875 25.0479Z" fill="var(--fill-0, white)"/>
</g>
</svg>
